<?xml version="1.0" standalone="no"?><!DOCTYPE svg PUBLIC "-//W3C//DTD SVG 1.1//EN" "http://www.w3.org/Graphics/SVG/1.1/DTD/svg11.dtd"><svg t="1548590554181" class="icon" style="" viewBox="0 0 1024 1024" version="1.1" xmlns="http://www.w3.org/2000/svg" p-id="2556" xmlns:xlink="http://www.w3.org/1999/xlink" width="32" height="32"><defs><style type="text/css"></style></defs><path d="M382.972 326.955s-24.896-54.176-49.78-92.245c-21.97-32.213-58.571-68.816-58.571-68.816-7.323-8.791-19.035-11.711-29.286-5.856-8.783 5.856-11.718 19.035-5.862 27.819 0 0 41.004 40.997 61.506 73.21 16.101 23.424 35.135 62.96 35.135 62.96m131.774 478.804s120.071-222.562 139.105-243.063c24.898-27.819 163.998-134.705 163.998-134.705 7.322-8.784 7.322-20.502-1.468-29.286-8.791-7.323-20.503-7.323-29.28 1.46 0 0-133.25 102.498-159.6 130.314-29.292 32.218-156.673 278.2-156.673 278.2" p-id="2557"></path><path d="M891.788 280.836H639.942c-71.758 0-140.566 27.826-191.823 79.074-14.632 14.64-27.811 30.747-38.063 48.314V192.985c0-82.001-65.895-149.35-147.882-149.35H133.319c-11.711 0-20.502 8.784-20.502 20.502v128.848c0 81.995 67.355 149.351 149.357 149.351h108.353V958.77c0 11.713 8.776 20.503 20.488 20.503 11.718 0 20.502-8.79 20.502-20.503V824.059h228.425c71.742 0 140.558-27.816 191.807-79.059 51.248-51.248 79.074-118.604 79.074-191.814V301.338c1.459-11.712-8.791-20.502-19.035-20.502z m-547.626 19.035h-83.455c-60.039 0-108.353-48.314-108.353-108.353V84.633h108.353c60.039 0 108.353 48.314 108.353 108.353v106.886m40.997 481.729L411.518 745V551.718c-1.461-127.387 102.497-229.885 228.425-229.885h229.876v229.885c0 127.387-103.957 229.883-229.876 229.883H432.02" p-id="2558"></path></svg>