<?xml version="1.0" standalone="no"?><!DOCTYPE svg PUBLIC "-//W3C//DTD SVG 1.1//EN" "http://www.w3.org/Graphics/SVG/1.1/DTD/svg11.dtd"><svg t="1533717798762" class="icon" style="" viewBox="0 0 1024 1024" version="1.1" xmlns="http://www.w3.org/2000/svg" p-id="3619" xmlns:xlink="http://www.w3.org/1999/xlink" width="40" height="40"><defs><style type="text/css"></style></defs><path d="M651.5712 530.2272c-19.3536 50.176-28.5696 223.232 37.4784 262.656 87.6544 48.64 157.2864 13.312 157.2864 13.312s22.8352-10.8544 26.2144-14.848c3.4816-3.9936 7.168-33.3824-27.2384-15.872-41.8816 20.0704-81.6128 18.2272-129.024 0-47.5136-21.9136-61.44-165.2736-34.5088-236.8512 26.2144-60.0064 105.984-239.616 108.6464-290.304 2.6624-50.688-76.6976-104.0384-159.5392-89.9072-54.9888 8.3968-99.0208 73.9328-99.0208 73.9328l28.5696 11.4688s27.7504-43.008 72.9088-55.5008c49.664-9.6256 129.024 24.1664 126.6688 61.5424-2.7648 48.4352-99.5328 248.6272-108.4416 280.3712zM149.2992 728.7808c15.1552-13.1072 34.2016-20.8896 54.3744-13.5168l87.4496 31.8464c4.1984 1.536 8.2944 1.536 12.4928 0.9216 16.2816 0.7168 29.184-9.6256 35.0208-25.8048 4.7104-12.9024 21.8112-18.5344 34.6112-13.824 12.9024 4.7104 26.2144 21.4016 21.504 34.304-5.8368 16.0768-6.7584 30.6176 5.9392 40.6528 2.7648 3.1744 6.0416 5.9392 10.3424 7.4752l87.9616 32.0512c20.0704 7.2704 29.5936 25.4976 32.768 45.2608L149.2992 728.7808z m237.7728 10.1376l-36.5568-13.312c-5.3248-1.9456-8.0896-7.7824-6.144-13.1072l175.104-481.0752c1.9456-5.3248 7.7824-8.0896 13.1072-6.144l36.5568 13.312c5.3248 1.9456 8.0896 7.7824 6.144 13.1072l-175.104 481.0752c-1.9456 5.3248-7.8848 8.0896-13.1072 6.144z m168.96-494.2848l-17.3056-6.3488c-5.3248-1.9456-11.1616 0.8192-13.1072 6.144L357.4784 706.3552c-1.9456 5.3248 0.8192 11.1616 6.144 13.1072l17.3056 6.3488c5.3248 1.9456 11.1616-0.8192 13.1072-6.144L562.176 257.7408c1.9456-5.3248-0.8192-11.1616-6.144-13.1072z m-64.8192 70.2464l51.9168 18.944c4.3008 1.536 6.4512 6.2464 4.9152 10.5472l-99.4304 273.3056c-1.536 4.3008-6.2464 6.4512-10.5472 4.9152l-51.9168-18.944c-4.3008-1.536-6.4512-6.2464-4.9152-10.5472l99.4304-273.3056c1.6384-4.3008 6.3488-6.4512 10.5472-4.9152z" p-id="3620"></path></svg>