<?xml version="1.0" standalone="no"?><!DOCTYPE svg PUBLIC "-//W3C//DTD SVG 1.1//EN" "http://www.w3.org/Graphics/SVG/1.1/DTD/svg11.dtd"><svg t="1533115213671" class="icon" style="" viewBox="0 0 1025 1024" version="1.1" xmlns="http://www.w3.org/2000/svg" p-id="10663" xmlns:xlink="http://www.w3.org/1999/xlink" width="40.0390625" height="40"><defs><style type="text/css"></style></defs><path d="M674.829574 418.921761c0-89.95136-72.935089-162.886449-162.881449-162.886449-89.95636 0-162.886449 72.935089-162.886449 162.886449 0 89.99011 72.930089 162.880199 162.886449 162.880199C601.895735 581.81696 674.829574 508.911871 674.829574 418.921761L674.829574 418.921761 674.829574 418.921761 674.829574 418.921761z" p-id="10664" fill="#515151"></path><path d="M773.530944 785.674709l0.0925-1.102501C773.463444 784.697208 773.304694 784.830958 773.530944 785.674709z" p-id="10665" fill="#515151"></path><path d="M512.016875 0C229.23403 0 0 229.23403 0 512.016875 0 794.77597 229.23403 1024 512.016875 1024c282.774095 0 512.006875-229.22403 512.006875-511.983125C1024.025 229.23403 794.79097 0 512.016875 0zM773.664694 784.537208c-0.543751 8.09126-7.237509 14.448768-15.465019 14.448768-8.58876 0-16.21627-6.913758-16.21627-15.502519-29.907537-98.720121-121.542648-170.640208-230.034031-170.640208-108.501382 0-200.586495 75.346342-230.497781 174.082713l0.005-0.0425c-1.943752 8.03376-10.537513 12.103765-15.766269 12.103765-8.57876 0-15.512519-6.913758-15.512519-15.502519 0.410001-1.675002 0.512501-3.310004 0.986251-5.015006 0.15125-0.420001 0.21875-0.878751 0.38-1.293752 25.342531-86.698856 92.535113-155.51769 178.428968-182.705223-66.070081-30.907538-111.933887-97.787619-111.933887-175.546464 0-107.066381 86.806356-193.901487 193.910237-193.901487 107.065131 0 193.906487 86.830106 193.906487 193.901487 0 77.758845-45.912556 144.638927-111.962637 175.531464 85.903855 27.192533 153.086437 96.020117 178.422718 182.701473 0.19 0.420001 1.275002 5.907507 1.401252 6.327508C773.935945 784.257207 773.812195 784.417208 773.664694 784.537208z" p-id="10666" fill="#515151"></path></svg>