<?xml version="1.0" standalone="no"?><!DOCTYPE svg PUBLIC "-//W3C//DTD SVG 1.1//EN" "http://www.w3.org/Graphics/SVG/1.1/DTD/svg11.dtd"><svg t="1548590786223" class="icon" style="" viewBox="0 0 1024 1024" version="1.1" xmlns="http://www.w3.org/2000/svg" p-id="3531" xmlns:xlink="http://www.w3.org/1999/xlink" width="48" height="48"><defs><style type="text/css"></style></defs><path d="M908.8 290.133333l-78.933333-23.466667C814.933333 183.466667 746.666667 128 661.333333 128c-83.2 0-151.466667 53.333333-168.533333 132.266667l-119.466667 34.133333c-4.266667 2.133333-8.533333 2.133333-10.666667 2.133333-4.266667 0-8.533333 0-12.8-2.133333L140.8 234.666667c-4.266667-2.133333-8.533333-2.133333-12.8-2.133333-23.466667 0-42.666667 19.2-42.666667 42.666667l0 503.466667c0 19.2 12.8 36.266667 29.866667 40.533333l234.666667 72.533333c4.266667 2.133333 8.533333 2.133333 12.8 2.133333 4.266667 0 8.533333 0 10.666667-2.133333l275.2-78.933333c4.266667-2.133333 8.533333-2.133333 10.666667-2.133333 4.266667 0 8.533333 0 12.8 2.133333l209.066667 64c4.266667 2.133333 8.533333 2.133333 12.8 2.133333 23.466667 0 42.666667-19.2 42.666667-42.666667L936.533333 330.666667C938.666667 311.466667 925.866667 294.4 908.8 290.133333zM362.666667 341.333333l0 509.866667L128 778.666667 128 275.2l211.2 61.866667C347.733333 339.2 354.133333 339.2 362.666667 341.333333 362.666667 339.2 362.666667 339.2 362.666667 341.333333 362.666667 339.2 362.666667 341.333333 362.666667 341.333333zM661.333333 170.666667c72.533333 0 128 53.333333 128 123.733333 0 27.733333-10.666667 57.6-32 87.466667-27.733333 38.4-66.133333 96-96 140.8-29.866667-42.666667-68.266667-102.4-96-140.8-21.333333-29.866667-32-59.733333-32-87.466667C533.333333 224 588.8 170.666667 661.333333 170.666667zM896 838.4l-209.066667-64c-2.133333 0-2.133333 0-4.266667 0 0-2.133333 0-2.133333 0-4.266667l0-128c0-12.8-8.533333-21.333333-21.333333-21.333333s-21.333333 8.533333-21.333333 21.333333l0 128c0 2.133333 0 2.133333 0 4.266667-2.133333 0-2.133333 0-4.266667 0L405.333333 838.4 405.333333 341.333333c0-4.266667-2.133333-6.4-2.133333-10.666667l89.6-25.6c2.133333 38.4 19.2 70.4 38.4 100.266667 25.6 36.266667 66.133333 96 96 138.666667 8.533333 12.8 21.333333 19.2 36.266667 19.2s27.733333-6.4 36.266667-19.2c27.733333-42.666667 68.266667-102.4 96-138.666667 19.2-27.733333 36.266667-59.733333 38.4-96l64 19.2L898.133333 838.4zM661.333333 362.666667c36.266667 0 64-27.733333 64-64s-27.733333-64-64-64-64 27.733333-64 64S625.066667 362.666667 661.333333 362.666667zM661.333333 277.333333c12.8 0 21.333333 8.533333 21.333333 21.333333s-8.533333 21.333333-21.333333 21.333333-21.333333-8.533333-21.333333-21.333333S648.533333 277.333333 661.333333 277.333333z" p-id="3532"></path></svg>