<?xml version="1.0" standalone="no"?><!DOCTYPE svg PUBLIC "-//W3C//DTD SVG 1.1//EN" "http://www.w3.org/Graphics/SVG/1.1/DTD/svg11.dtd"><svg t="1533114264781" class="icon" style="" viewBox="0 0 1024 1024" version="1.1" xmlns="http://www.w3.org/2000/svg" p-id="9098" xmlns:xlink="http://www.w3.org/1999/xlink" width="64" height="64"><defs><style type="text/css"></style></defs><path d="M510.431272 955.332061c-58.470693 0-116.941386-11.675924-172.498726-34.95921-109.908202-46.088688-195.258079-132.213207-240.369509-242.508219s-44.586474-231.56089 1.502213-341.446579c46.088688-109.908202 132.213207-195.258079 242.508219-240.369509 110.272499-45.110407 231.538377-44.563962 341.446579 1.502213 109.908202 46.088688 195.258079 132.213207 240.369509 242.508219 27.767414 67.893296 38.487569 142.091182 30.953989 214.582193-0.978281 9.627265-9.53619 16.637935-19.186991 15.591093-9.604752-1.001817-16.591887-9.582239-15.591093-19.186991 6.942109-66.777893-2.935865-135.171586-28.541033-197.739597-41.559535-101.646028-120.241548-181.0331-221.523279-223.503377-101.236706-42.49279-213.033931-42.948161-314.680982-1.388627s-181.0331 120.241548-223.503377 221.523279-42.970674 213.033931-1.388627 314.680982c41.559535 101.646028 120.241548 181.0331 221.523279 223.503377 101.214193 42.49279 213.011418 42.970674 314.680982 1.388627 8.876158-3.618411 19.140942 0.63752 22.805402 9.558703 3.641947 8.944719-0.63752 19.140942-9.559727 22.805402C624.846114 944.179047 567.627948 955.332061 510.431272 955.332061z" p-id="9099" fill="#1296db"></path><path d="M826.864154 820.432675c-0.227174 0-0.455371 0-0.682545-0.022513-9.649777-0.364297-17.183358-8.466835-16.796548-18.116613l4.415566-115.575272c0.341784-9.649777 8.375761-18.025539 18.116613-16.796548 9.649777 0.364297 17.183358 8.466835 16.796548 18.116613l-4.415566 115.575272C843.957461 813.035194 836.196707 820.432675 826.864154 820.432675z" p-id="9100" fill="#1296db"></path><path d="M942.440449 824.848241c-0.227174 0-0.455371 0-0.682545-0.022513l-115.575272-4.415566c-9.649777-0.364297-17.183358-8.466835-16.796548-18.116613 0.341784-9.673313 8.011464-17.934464 18.116613-16.796548l115.575272 4.415566c9.649777 0.364297 17.183358 8.466835 16.796548 18.116613C959.532733 817.45076 951.771979 824.848241 942.440449 824.848241z" p-id="9101" fill="#1296db"></path><path d="M631.606075 625.879654 389.347542 625.879654c-9.649777 0-17.480116-7.829316-17.480116-17.480116 0-9.649777 7.829316-17.480116 17.480116-17.480116l242.258533 0c9.649777 0 17.480116 7.829316 17.480116 17.480116C649.086192 618.050338 641.255853 625.879654 631.606075 625.879654z" p-id="9102" fill="#1296db"></path><path d="M653.66037 526.395872 367.293247 526.395872c-9.649777 0-17.480116-7.829316-17.480116-17.480116s7.829316-17.480116 17.480116-17.480116l286.367123 0c9.649777 0 17.480116 7.829316 17.480116 17.480116S663.311171 526.395872 653.66037 526.395872z" p-id="9103" fill="#1296db"></path><path d="M510.47732 726.798111c-9.649777 0-17.480116-7.829316-17.480116-17.480116L492.997204 440.749236c0-9.649777 7.829316-17.480116 17.480116-17.480116 9.649777 0 17.480116 7.829316 17.480116 17.480116L527.957437 709.317994C527.956414 718.968795 520.127098 726.798111 510.47732 726.798111z" p-id="9104" fill="#1296db"></path><path d="M510.47732 463.827861c-4.484128 0-8.944719-1.706875-12.358469-5.120624L389.825426 350.414835c-6.828522-6.828522-6.828522-17.889439 0-24.716938 6.828522-6.828522 17.889439-6.828522 24.716938 0l108.292402 108.292402c6.827499 6.828522 6.827499 17.889439 0 24.716938C519.42204 462.120986 514.960425 463.827861 510.47732 463.827861z" p-id="9105" fill="#1296db"></path><path d="M510.204098 463.827861c-4.484128 0-8.944719-1.706875-12.358469-5.120624-6.828522-6.827499-6.828522-17.889439 0-24.716938l114.459868-114.437355c6.851035-6.851035 17.911952-6.804986 24.716938 0 6.828522 6.828522 6.828522 17.889439 0 24.716938L522.562567 458.707236C519.148817 462.120986 514.687202 463.827861 510.204098 463.827861z" p-id="9106" fill="#1296db"></path></svg>