<?xml version="1.0" standalone="no"?><!DOCTYPE svg PUBLIC "-//W3C//DTD SVG 1.1//EN" "http://www.w3.org/Graphics/SVG/1.1/DTD/svg11.dtd"><svg t="1533717755118" class="icon" style="" viewBox="0 0 1024 1024" version="1.1" xmlns="http://www.w3.org/2000/svg" p-id="3107" xmlns:xlink="http://www.w3.org/1999/xlink" width="40" height="40"><defs><style type="text/css"></style></defs><path d="M512 1024C229.228294 1024 0 794.771706 0 512S229.228294 0 512 0 1024 229.228294 1024 512 794.771706 1024 512 1024zM191.733703 444.7597a24.813182 24.813182 0 0 0 24.818863 24.811762h172.378541a0.180372 0.180372 0 0 0-0.079534-0.083795h122.054835q-0.11646-12.479734-0.359323-25.208011c-0.120721-10.443096-0.28405-20.76689-0.318136-30.969964-0.041187-6.122696-0.083795-12.245393-0.083795-18.285714v-2.802153H216.552566A24.80324 24.80324 0 0 0 191.733703 416.985298v27.768721z m318.854569-162.618585c-0.161908-10.441675-0.320976-20.76689-0.359323-30.969964-0.041187-6.122696-0.083795-12.243972-0.083795-18.285714V230.080444H216.552566A24.80324 24.80324 0 0 0 191.733703 254.852438v27.694869a24.784777 24.784777 0 0 0 24.818863 24.8075H510.949015q-0.119301-12.485415-0.360743-25.213692z m-8.449065 337.763773c-7.96334-10.725725-16.091429-21.648865-24.299052-32.894403l-24.017842-32.523717H216.552566A24.800399 24.800399 0 0 0 191.733703 579.250241v27.694869a24.784777 24.784777 0 0 0 24.818863 24.8075h294.434796z m-285.586641 96.794274A24.80182 24.80182 0 0 0 191.733703 741.468316v27.694868a24.777675 24.777675 0 0 0 24.818863 24.767734H805.707628a24.769154 24.769154 0 0 0 24.780516-24.767734v-27.694868a24.80182 24.80182 0 0 0-24.818862-24.769154H216.552566zM825.023024 376.455634l-128.630591-139.621903a26.081465 26.081465 0 0 0-34.938142 0l-128.752732 139.621903a21.692893 21.692893 0 0 0 0 32.357548l87.680533 2.359034v247.087934c0 12.11899 10.698741 22.036594 23.800543 22.036593h69.525482c13.104644 0 23.804804-9.917603 23.804804-22.036593V411.172216l87.515784-2.359034a21.748283 21.748283 0 0 0-0.005681-32.357548z" fill="#515151" p-id="3108"></path></svg>