<?xml version="1.0" standalone="no"?><!DOCTYPE svg PUBLIC "-//W3C//DTD SVG 1.1//EN" "http://www.w3.org/Graphics/SVG/1.1/DTD/svg11.dtd"><svg t="1548591083971" class="icon" style="" viewBox="0 0 1024 1024" version="1.1" xmlns="http://www.w3.org/2000/svg" p-id="5944" xmlns:xlink="http://www.w3.org/1999/xlink" width="48" height="48"><defs><style type="text/css"></style></defs><path d="M706.74 890.684c1.68 7.346 3.26 14.18 4.785 20.411-1.34-7.115-2.99-13.85-4.785-20.41z m276.175-614.629c-40.24-97.34-64.31-120.535-64.31-120.535s22.145 56.315-13.495 97.605c-35.64 41.3-190.745 55.864-235.095 170.065-13.87 35.72-20.57 64.86-23.54 87.82-25.085-132.491-86.56-276.496-262.56-303.115-198.575-30.03-216.23 45.664-356.93 38.42 0 0 117.75 31.065 167.64 163.605 49.895 132.544 151.68 343.785 361.235 362.424 84.11 7.58 131.275 46.576 150.88 118.34-31.2-136.99-96.495-460.315-496.145-619.515 65.61 8.25 372.77 35.1 452.06 375.166-2.92 40.08 3.396 98.364 34.814 185.68 0 0-42.298-142.941-16.809-183.495 25.49-40.55 89.95-44.59 159.31-71.871 69.355-27.28 200.145-162.244 142.945-300.594z m-179.03 179.87c-41.07 36.395-115.445 99.46-128.95 134.46-4.884 12.645-9.9 29.364-11.945 52.115-2.125-25.316-4.715-53.755-8.79-83.766 9.75-23.479 32.5-69.39 73.365-105.76 42.34-37.695 131.446-95.074 191.86-150.96-8.425 34.645-74.46 117.511-115.54 153.91z m0 0" fill="" p-id="5945"></path></svg>