<?xml version="1.0" standalone="no"?><!DOCTYPE svg PUBLIC "-//W3C//DTD SVG 1.1//EN" "http://www.w3.org/Graphics/SVG/1.1/DTD/svg11.dtd"><svg t="1533113776901" class="icon" style="" viewBox="0 0 1024 1024" version="1.1" xmlns="http://www.w3.org/2000/svg" p-id="7847" xmlns:xlink="http://www.w3.org/1999/xlink" width="40" height="40"><defs><style type="text/css"></style></defs><path d="M511.109212 69.6585c-244.620323 0-442.901249 198.307531-442.901249 442.908412s198.280926 442.908412 442.901249 442.908412c244.600881 0 442.87362-198.307531 442.87362-442.908412S755.710093 69.6585 511.109212 69.6585M511.109212 910.87043c-219.984227 0-398.313751-178.329525-398.313751-398.303518 0-219.99139 178.330548-398.321938 398.313751-398.321938 219.97297 0 398.286122 178.330548 398.286122 398.321938C909.395334 732.541929 731.082182 910.87043 511.109212 910.87043" p-id="7848" fill="#1296db"></path><path d="M419.53047 740.447992l57.858756 0 0 21.197788-57.858756 0 0-21.197788Z" p-id="7849" fill="#1296db"></path><path d="M544.809755 291.477514l57.876152 0 0 21.179368-57.876152 0 0-21.179368Z" p-id="7850" fill="#1296db"></path><path d="M544.809755 254.902504l57.876152 0 0 21.179368-57.876152 0 0-21.179368Z" p-id="7851" fill="#1296db"></path><path d="M419.600055 380.233977 419.600055 684.452677 477.389226 684.452677 477.389226 255.321036 352.049566 380.233977Z" p-id="7852" fill="#1296db"></path><path d="M419.53047 703.855586l57.858756 0 0 21.196765-57.858756 0 0-21.196765Z" p-id="7853" fill="#1296db"></path><path d="M602.598926 635.966383 602.598926 332.094584 544.792359 332.094584 544.792359 761.243621 670.140205 635.966383Z" p-id="7854" fill="#1296db"></path></svg>