<?xml version="1.0" standalone="no"?><!DOCTYPE svg PUBLIC "-//W3C//DTD SVG 1.1//EN" "http://www.w3.org/Graphics/SVG/1.1/DTD/svg11.dtd"><svg t="1533717977115" class="icon" style="" viewBox="0 0 1024 1024" version="1.1" xmlns="http://www.w3.org/2000/svg" p-id="4725" xmlns:xlink="http://www.w3.org/1999/xlink" width="40" height="40"><defs><style type="text/css"></style></defs><path d="M0 512C0 794.771706 229.228294 1024 512 1024S1024 794.771706 1024 512 794.771706 0 512 0 0 229.228294 0 512z m825.037226 22.07352L696.535878 673.766436a26.026075 26.026075 0 0 1-34.908316 0l-128.62207-139.692916a21.72982 21.72982 0 0 1 0-32.37317l87.591057-2.359035V252.12982c0-12.123251 10.688799-22.046535 23.7764-22.046536h69.450208c13.091861 0 23.77924 9.923284 23.77924 22.046536v247.211495l87.429148 2.359035a21.782369 21.782369 0 0 1 0.005681 32.37317zM191.733703 606.940849v-27.694868a24.800399 24.800399 0 0 1 24.818863-24.769154h237.269747l24.017842 32.523717c8.207623 11.245537 16.332871 22.168677 24.299052 32.894402l8.848155 11.843462H216.552566A24.784777 24.784777 0 0 1 191.733703 606.940849z m0-324.397803v-27.694868A24.80324 24.80324 0 0 1 216.552566 230.080444h293.592588v2.802152c0 6.041742 0.042607 12.163018 0.083795 18.285715 0.038347 10.203074 0.197415 20.528288 0.359323 30.969964q0.241442 12.726857 0.360743 25.209431H216.552566A24.784777 24.784777 0 0 1 191.733703 282.543046z m24.818863 109.678779h293.592588v2.802153c0 6.040322 0.042607 12.163018 0.083795 18.285714 0.038347 10.203074 0.197415 20.526868 0.318136 30.969964q0.238602 12.726857 0.359323 25.208011h-122.054835a0.180372 0.180372 0 0 1 0.079534 0.083795H216.552566A24.813182 24.813182 0 0 1 191.733703 444.7597V416.985298a24.80324 24.80324 0 0 1 24.818863-24.763473z m0 324.477337h589.111035a24.80182 24.80182 0 0 1 24.818862 24.769154v27.694868a24.769154 24.769154 0 0 1-24.774835 24.763473H216.552566A24.777675 24.777675 0 0 1 191.733703 769.158924v-27.694869a24.80182 24.80182 0 0 1 24.818863-24.764893z" fill="#515151" p-id="4726"></path></svg>