<?xml version="1.0" standalone="no"?><!DOCTYPE svg PUBLIC "-//W3C//DTD SVG 1.1//EN" "http://www.w3.org/Graphics/SVG/1.1/DTD/svg11.dtd"><svg t="1533115588303" class="icon" style="" viewBox="0 0 1024 1024" version="1.1" xmlns="http://www.w3.org/2000/svg" p-id="11634" xmlns:xlink="http://www.w3.org/1999/xlink" width="40" height="40"><defs><style type="text/css"></style></defs><path d="M892.8 259.2l-128-128a16 16 0 0 0-17.6-3.2H184A56 56 0 0 0 128 184v656a56 56 0 0 0 56 56h652.8a59.2 59.2 0 0 0 59.2-59.2v-560a16 16 0 0 0-3.2-17.6z m-124.8-80l76.8 76.8h-49.6a27.2 27.2 0 0 1-27.2-27.2zM160 840v-656a24 24 0 0 1 24-24H304v704h-120a24 24 0 0 1-24-24z m704-3.2a27.2 27.2 0 0 1-27.2 27.2H336V160h400v68.8a59.2 59.2 0 0 0 59.2 59.2H864z" fill="#515151" p-id="11635"></path><path d="M588.8 307.2l-208 179.2a40 40 0 0 0-14.4 44.8 38.4 38.4 0 0 0 38.4 28.8h11.2v153.6a38.4 38.4 0 0 0 38.4 38.4h291.2a38.4 38.4 0 0 0 38.4-38.4V560h11.2a38.4 38.4 0 0 0 36.8-27.2 40 40 0 0 0-12.8-44.8l-208-180.8a16 16 0 0 0-22.4 0zM560 720v-132.8a11.2 11.2 0 0 1 11.2-11.2h41.6a11.2 11.2 0 0 1 11.2 11.2V720z m241.6-196.8a6.4 6.4 0 0 1-6.4 4.8H768a16 16 0 0 0-16 16v169.6a6.4 6.4 0 0 1-6.4 6.4H656v-132.8a43.2 43.2 0 0 0-43.2-43.2h-41.6a43.2 43.2 0 0 0-43.2 43.2V720h-73.6a6.4 6.4 0 0 1-6.4-6.4V544a16 16 0 0 0-16-16h-27.2a6.4 6.4 0 0 1-6.4-4.8 9.6 9.6 0 0 1 3.2-9.6l198.4-172.8L800 513.6a8 8 0 0 1 1.6 9.6z" fill="#515151" p-id="11636"></path></svg>